<svg width="16" height="15" viewBox="0 0 16 15" fill="none" xmlns="http://www.w3.org/2000/svg">
<path d="M10.9896 1.18616H5.05903C3.42135 1.18616 2.09375 2.51376 2.09375 4.15144V10.082C2.09375 11.7197 3.42135 13.0473 5.05903 13.0473H10.9896C12.6273 13.0473 13.9549 11.7197 13.9549 10.082V4.15144C13.9549 2.51376 12.6273 1.18616 10.9896 1.18616Z" stroke="#212121" stroke-width="1.18611" stroke-linecap="round" stroke-linejoin="round"/>
<path d="M10.3965 6.74307C10.4697 7.23664 10.3854 7.74072 10.1556 8.18361C9.92579 8.6265 9.56218 8.98566 9.11649 9.20999C8.67079 9.43432 8.16571 9.5124 7.67308 9.43313C7.18046 9.35386 6.72537 9.12127 6.37254 8.76845C6.01972 8.41563 5.78714 7.96054 5.70787 7.46791C5.62859 6.97528 5.70668 6.4702 5.93101 6.02451C6.15534 5.57882 6.51449 5.21521 6.95738 4.9854C7.40028 4.75559 7.90436 4.67128 8.39793 4.74447C8.90138 4.81913 9.36748 5.05373 9.72737 5.41362C10.0873 5.77351 10.3219 6.23961 10.3965 6.74307Z" stroke="#212121" stroke-width="1.18611" stroke-linecap="round" stroke-linejoin="round"/>
<path d="M11.2852 3.85489H11.2921" stroke="#212121" stroke-width="1.18611" stroke-linecap="round" stroke-linejoin="round"/>
</svg>
