<svg width="15" height="15" viewBox="0 0 15 15" fill="none" xmlns="http://www.w3.org/2000/svg">
<g clip-path="url(#clip0_428_680)">
<path d="M13.0467 10.0345V11.8137C13.0474 11.9789 13.0136 12.1424 12.9474 12.2937C12.8812 12.445 12.7842 12.5809 12.6625 12.6925C12.5408 12.8042 12.3971 12.8892 12.2406 12.9421C12.0841 12.995 11.9183 13.0147 11.7539 12.9998C9.92892 12.8015 8.17595 12.1779 6.63578 11.1791C5.20286 10.2686 3.98799 9.05373 3.07745 7.62081C2.07517 6.07365 1.45143 4.31215 1.25677 2.47901C1.24195 2.31502 1.26144 2.14973 1.314 1.99367C1.36656 1.83762 1.45103 1.69422 1.56205 1.5726C1.67307 1.45098 1.80819 1.35382 1.95882 1.28728C2.10945 1.22075 2.27228 1.18631 2.43695 1.18615H4.21611C4.50393 1.18332 4.78295 1.28524 5.00118 1.47292C5.21941 1.66059 5.36194 1.92121 5.40223 2.20621C5.47732 2.77558 5.61659 3.33463 5.81736 3.8727C5.89716 4.08496 5.91443 4.31566 5.86713 4.53744C5.81983 4.75922 5.70994 4.9628 5.55049 5.12404L4.79731 5.87722C5.64156 7.36197 6.8709 8.59131 8.35564 9.43556L9.10882 8.68238C9.27007 8.52293 9.47364 8.41304 9.69543 8.36574C9.91721 8.31844 10.1479 8.33571 10.3602 8.4155C10.8982 8.61628 11.4573 8.75555 12.0267 8.83064C12.3147 8.87128 12.5778 9.01639 12.7659 9.23836C12.954 9.46034 13.0539 9.74369 13.0467 10.0345Z" stroke="#212121" stroke-width="1.18611" stroke-linecap="round" stroke-linejoin="round"/>
</g>
<defs>
<clipPath id="clip0_428_680">
<rect width="14.2333" height="14.2333" fill="white"/>
</clipPath>
</defs>
</svg>
