<svg width="16" height="15" viewBox="0 0 16 15" fill="none" xmlns="http://www.w3.org/2000/svg">
<g clip-path="url(#clip0_428_673)">
<path d="M14.4574 1.77919C13.8895 2.17978 13.2607 2.48617 12.5952 2.68656C12.238 2.27588 11.7633 1.9848 11.2353 1.85268C10.7073 1.72057 10.1515 1.7538 9.643 1.94788C9.13451 2.14197 8.69789 2.48753 8.39219 2.93785C8.08649 3.38817 7.92647 3.9215 7.93377 4.46573V5.05878C6.89155 5.08581 5.85883 4.85466 4.92757 4.38593C3.99632 3.9172 3.19544 3.22543 2.59627 2.37224C2.59627 2.37224 0.224045 7.70974 5.56155 10.082C4.34016 10.911 2.88518 11.3267 1.41016 11.2681C6.74766 14.2334 13.2713 11.2681 13.2713 4.44794C13.2707 4.28274 13.2548 4.11796 13.2238 3.9557C13.8291 3.35879 14.2562 2.60514 14.4574 1.77919V1.77919Z" stroke="#212121" stroke-width="1.18611" stroke-linecap="round" stroke-linejoin="round"/>
</g>
<defs>
<clipPath id="clip0_428_673">
<rect width="14.2333" height="14.2333" fill="white" transform="translate(0.814453)"/>
</clipPath>
</defs>
</svg>
